<?xml version="1.0" standalone="no"?>
<!DOCTYPE svg PUBLIC "-//W3C//DTD SVG 20010904//EN"
 "http://www.w3.org/TR/2001/REC-SVG-20010904/DTD/svg10.dtd">
<svg version="1.0" xmlns="http://www.w3.org/2000/svg"
 width="512.000000pt" height="512.000000pt" viewBox="0 0 512.000000 512.000000"
 preserveAspectRatio="xMidYMid meet">

<g transform="translate(0.000000,512.000000) scale(0.100000,-0.100000)"
fill="#000000" stroke="none">
<path d="M2421 5105 c-136 -30 -274 -118 -351 -225 -38 -51 -48 -59 -94 -69
-192 -43 -357 -208 -411 -411 -30 -114 -13 -288 39 -379 13 -23 9 -28 -83
-121 -165 -166 -285 -359 -355 -570 -72 -217 -69 -172 -76 -1040 -7 -851 -7
-854 -66 -1042 -37 -119 -78 -208 -151 -330 -82 -136 -104 -200 -110 -313 -9
-168 47 -316 167 -436 80 -80 154 -123 256 -149 75 -19 113 -20 1374 -20 1259
0 1299 1 1374 20 106 27 169 63 251 145 202 200 233 500 76 729 -65 94 -139
258 -176 390 -47 163 -47 173 -55 1001 -7 873 -4 828 -76 1045 -70 211 -190
404 -355 570 l-96 97 19 36 c30 59 48 146 48 232 0 156 -53 280 -169 396 -84
84 -131 112 -238 144 -67 20 -74 24 -117 82 -136 180 -389 269 -625 218z m283
-319 c72 -35 127 -99 163 -188 l29 -71 67 2 c132 5 230 -48 281 -151 28 -55
35 -143 16 -192 l-9 -25 -96 45 c-352 167 -864 162 -1218 -12 l-68 -33 -9 25
c-18 47 -11 135 14 190 47 102 151 158 283 153 l67 -2 28 68 c47 113 104 172
201 207 74 27 177 20 251 -16z m-25 -766 c145 -15 279 -53 406 -114 327 -158
530 -422 621 -809 15 -63 18 -167 24 -842 6 -728 8 -776 28 -886 38 -210 111
-404 219 -585 33 -55 65 -115 71 -134 47 -133 -46 -304 -185 -339 -58 -15
-2548 -15 -2606 0 -139 35 -232 206 -185 339 6 19 38 79 71 134 108 181 181
375 219 585 20 110 22 159 28 886 6 680 9 779 24 845 53 228 149 417 288 566
177 188 447 322 716 353 110 12 147 12 261 1z"/>
<path d="M1810 2790 l0 -150 150 0 151 0 -3 148 -3 147 -147 3 -148 3 0 -151z"/>
<path d="M3017 2933 c-4 -3 -7 -71 -7 -150 l0 -143 150 0 150 0 0 150 0 150
-143 0 c-79 0 -147 -3 -150 -7z"/>
<path d="M2300 2384 c-140 -108 -274 -210 -298 -229 l-42 -32 200 -228 200
-228 -23 -26 c-13 -14 -101 -109 -196 -211 -94 -101 -182 -203 -195 -225 -67
-114 -75 -278 -18 -396 101 -211 353 -300 567 -200 l66 31 41 -21 c105 -53
224 -66 331 -35 219 64 348 310 279 533 -27 86 -53 120 -237 318 -92 99 -179
192 -192 206 l-24 26 201 228 c110 125 199 229 198 231 -16 14 -594 454 -598
453 -3 0 -120 -88 -260 -195z m350 -246 c38 -29 68 -57 66 -62 -3 -12 -149
-185 -156 -185 -7 0 -153 173 -156 185 -4 13 149 124 164 119 7 -3 44 -28 82
-57z m86 -888 c93 -99 174 -191 181 -203 7 -12 12 -41 13 -64 0 -77 -77 -134
-152 -112 -20 5 -68 44 -125 101 l-93 93 -93 -93 c-57 -57 -105 -96 -125 -101
-75 -22 -152 35 -152 112 1 23 6 52 13 64 16 29 346 383 357 383 4 0 84 -81
176 -180z"/>
</g>
</svg>
