<?xml version="1.0" standalone="no"?>
<!DOCTYPE svg PUBLIC "-//W3C//DTD SVG 20010904//EN"
 "http://www.w3.org/TR/2001/REC-SVG-20010904/DTD/svg10.dtd">
<svg version="1.0" xmlns="http://www.w3.org/2000/svg"
 width="512.000000pt" height="512.000000pt" viewBox="0 0 512.000000 512.000000"
 preserveAspectRatio="xMidYMid meet">

<g transform="translate(0.000000,512.000000) scale(0.100000,-0.100000)"
fill="#000000" stroke="none">
<path d="M3 4968 c3 -84 12 -185 20 -223 47 -214 150 -397 307 -549 39 -38 67
-72 63 -75 -4 -4 -34 -24 -66 -45 -94 -63 -191 -175 -242 -280 -74 -151 -78
-172 -83 -504 l-4 -294 299 4 298 4 98 33 c61 21 128 54 178 87 47 31 82 48
84 41 1 -7 26 -478 54 -1047 58 -1155 62 -1223 92 -1335 58 -224 199 -433 389
-577 88 -67 244 -142 365 -175 l100 -28 605 0 605 0 100 28 c55 15 145 49 200
76 274 134 477 382 554 676 30 112 34 180 92 1335 28 569 53 1040 54 1047 2 7
37 -10 84 -41 50 -33 117 -66 178 -87 l98 -33 298 -4 299 -4 -4 294 c-5 332
-9 353 -83 504 -51 105 -148 217 -242 280 -32 21 -62 41 -66 45 -4 3 24 37 63
75 157 152 260 335 307 549 8 38 17 139 20 223 l6 152 -150 0 -150 0 -6 -147
c-6 -169 -21 -232 -78 -349 -93 -191 -267 -335 -474 -394 -69 -20 -102 -20
-1705 -20 -1603 0 -1636 0 -1705 20 -207 59 -381 203 -474 394 -57 117 -72
180 -78 349 l-6 147 -150 0 -150 0 6 -152z m907 -1152 c0 -175 -39 -286 -134
-382 -96 -95 -207 -134 -382 -134 l-94 0 0 94 c0 51 5 117 10 147 26 137 122
263 243 320 82 38 128 47 255 48 l102 1 0 -94z m2990 77 c1 -45 -113 -2218
-115 -2222 -2 -2 -30 17 -62 41 -217 167 -488 288 -778 347 -534 110 -1125
-22 -1548 -347 -32 -24 -60 -43 -62 -41 -2 4 -116 2177 -115 2222 0 16 71 17
1340 17 1269 0 1340 -1 1340 -17z m551 7 c180 -34 325 -179 359 -359 5 -30 10
-96 10 -147 l0 -94 -94 0 c-175 0 -286 39 -382 134 -95 96 -134 207 -134 382
l0 94 94 0 c51 0 117 -5 147 -10z m-1621 -2124 c169 -29 308 -74 471 -157 158
-79 258 -150 411 -291 l57 -53 -10 -165 c-6 -98 -17 -197 -29 -244 -64 -258
-264 -462 -525 -538 -79 -23 -85 -23 -645 -23 -560 0 -566 0 -645 23 -261 76
-461 280 -525 538 -12 47 -23 146 -29 244 l-10 165 57 53 c153 141 253 212
411 291 171 86 335 139 501 160 47 6 99 13 115 15 56 8 310 -4 395 -18z"/>
<path d="M1692 3049 c-48 -14 -109 -80 -123 -131 -23 -89 12 -182 88 -229 57
-36 154 -34 210 3 62 41 88 90 88 168 0 77 -26 127 -85 166 -43 29 -125 39
-178 23z"/>
<path d="M3292 3049 c-48 -14 -109 -80 -123 -131 -23 -89 12 -182 88 -229 57
-36 154 -34 210 3 62 41 88 90 88 168 0 77 -26 127 -85 166 -43 29 -125 39
-178 23z"/>
<path d="M1992 989 c-48 -14 -109 -80 -123 -131 -23 -89 12 -182 88 -229 57
-36 154 -34 210 3 62 41 88 90 88 168 0 77 -26 127 -85 166 -43 29 -125 39
-178 23z"/>
<path d="M2992 989 c-48 -14 -109 -80 -123 -131 -23 -89 12 -182 88 -229 57
-36 154 -34 210 3 62 41 88 90 88 168 0 77 -26 127 -85 166 -43 29 -125 39
-178 23z"/>
</g>
</svg>
