<svg width="51" height="50" viewBox="0 0 51 50" fill="none" xmlns="http://www.w3.org/2000/svg">
<path fill-rule="evenodd" clip-rule="evenodd" d="M43.1169 7.26043C38.4433 2.5808 32.2274 0.00237424 25.6045 0C11.9574 0 0.850678 11.1055 0.845929 24.7562C0.843555 29.12 1.98438 33.3794 4.15088 37.1331L0.638184 49.9635L13.763 46.5209C17.3789 48.4939 21.4508 49.5326 25.5938 49.5338H25.6045C39.2492 49.5338 50.3572 38.4271 50.3619 24.7764C50.3643 18.1606 47.7918 11.9413 43.1169 7.26162V7.26043ZM25.6045 45.3528H25.5962C21.9042 45.3517 18.2824 44.3591 15.1223 42.4847L14.3708 42.0384L6.58211 44.0814L8.66075 36.4873L8.17165 35.7086C6.112 32.4322 5.0234 28.6452 5.02578 24.7575C5.03053 13.4121 14.2616 4.18104 25.6129 4.18104C31.1092 4.18341 36.2756 6.32617 40.161 10.2164C44.0465 14.1054 46.1845 19.2765 46.1821 24.774C46.1773 36.1206 36.9463 45.3517 25.6045 45.3517V45.3528ZM36.8916 29.9416C36.2731 29.6318 33.2318 28.1359 32.6643 27.9294C32.0969 27.7228 31.685 27.6196 31.273 28.2392C30.8611 28.859 29.6752 30.2526 29.3143 30.6645C28.9534 31.0776 28.5925 31.1287 27.974 30.8188C27.3556 30.509 25.3624 29.8561 22.9988 27.7489C21.16 26.1083 19.9182 24.0831 19.5574 23.4634C19.1965 22.8438 19.5194 22.509 19.828 22.2015C20.1057 21.9238 20.4465 21.4786 20.7563 21.1177C21.0662 20.7568 21.1683 20.4981 21.3748 20.0861C21.5814 19.6729 21.4781 19.3122 21.3238 19.0022C21.1694 18.6924 19.9325 15.6474 19.4161 14.4093C18.9139 13.2032 18.4035 13.367 18.0248 13.3468C17.6639 13.329 17.252 13.3254 16.8389 13.3254C16.4258 13.3254 15.7561 13.4798 15.1887 14.0994C14.6213 14.7191 13.0234 16.216 13.0234 19.2598C13.0234 22.3036 15.2398 25.2465 15.5496 25.6597C15.8595 26.0728 19.9122 32.3206 26.1173 35.0011C27.593 35.6385 28.7456 36.0196 29.6443 36.3046C31.1259 36.7758 32.4744 36.7094 33.5404 36.5503C34.7288 36.3722 37.2003 35.0533 37.7155 33.6086C38.2307 32.1638 38.2307 30.9244 38.0764 30.6669C37.9222 30.4093 37.509 30.2537 36.8905 29.9439L36.8916 29.9416Z" fill="#25D366"/>
</svg>
