<?xml version="1.0" standalone="no"?>
<!DOCTYPE svg PUBLIC "-//W3C//DTD SVG 20010904//EN"
 "http://www.w3.org/TR/2001/REC-SVG-20010904/DTD/svg10.dtd">
<svg version="1.0" xmlns="http://www.w3.org/2000/svg"
 width="512.000000pt" height="512.000000pt" viewBox="0 0 512.000000 512.000000"
 preserveAspectRatio="xMidYMid meet">

<g transform="translate(0.000000,512.000000) scale(0.100000,-0.100000)"
fill="#000000" stroke="none">
<path d="M2420 4977 c-74 -73 -173 -163 -220 -201 -210 -168 -499 -335 -731
-420 -439 -162 -866 -197 -1349 -111 -47 8 -86 15 -88 15 -8 0 21 -480 39
-640 141 -1308 644 -2341 1484 -3046 286 -240 686 -474 955 -559 l55 -17 100
37 c429 159 917 501 1267 891 642 714 1014 1626 1123 2754 15 162 39 570 32
576 -2 2 -53 -5 -113 -15 -286 -49 -611 -54 -853 -11 -355 62 -693 196 -984
391 -173 115 -273 196 -438 357 -75 72 -138 132 -140 132 -2 0 -65 -60 -139
-133z m218 -375 c549 -483 1269 -746 1964 -718 l156 7 -4 -38 c-2 -21 -11
-110 -20 -198 -86 -868 -375 -1663 -822 -2258 -340 -452 -790 -820 -1248
-1021 l-103 -46 -83 36 c-133 57 -283 139 -433 238 -904 598 -1480 1621 -1644
2916 -11 85 -23 193 -26 240 -3 47 -8 95 -11 108 l-5 23 153 -7 c535 -23 1098
129 1576 427 124 77 324 226 407 302 33 31 61 56 63 57 2 0 38 -30 80 -68z"/>
<path d="M2905 2630 l-690 -690 -350 350 -350 350 -110 -110 -110 -110 463
-463 462 -462 802 802 803 803 -110 110 c-60 60 -112 110 -115 110 -3 0 -316
-310 -695 -690z"/>
</g>
</svg>
