<?xml version="1.0" standalone="no"?>
<!DOCTYPE svg PUBLIC "-//W3C//DTD SVG 20010904//EN"
 "http://www.w3.org/TR/2001/REC-SVG-20010904/DTD/svg10.dtd">
<svg version="1.0" xmlns="http://www.w3.org/2000/svg"
 width="512.000000pt" height="512.000000pt" viewBox="0 0 512.000000 512.000000"
 preserveAspectRatio="xMidYMid meet">
<metadata>
Created by potrace 1.16, written by Peter Selinger 2001-2019
</metadata>
<g transform="translate(0.000000,512.000000) scale(0.100000,-0.100000)"
fill="#000000" stroke="none">
<path d="M610 4030 l0 -632 -45 -72 c-62 -100 -137 -263 -175 -381 -58 -183
-72 -272 -77 -487 l-5 -198 -154 0 -154 0 0 -150 0 -150 183 0 182 0 28 -93
c16 -50 53 -143 83 -206 29 -62 52 -117 49 -120 -2 -4 -99 -48 -214 -97 -116
-49 -211 -93 -211 -99 0 -18 113 -275 121 -275 5 0 117 46 250 103 l241 104
136 -137 c76 -75 181 -169 236 -210 327 -243 732 -402 1156 -455 163 -20 477
-20 640 0 559 69 1056 311 1423 694 l104 109 242 -104 c134 -57 246 -104 250
-104 8 0 121 257 121 275 0 6 -95 51 -211 100 -116 50 -213 93 -215 96 -2 4
21 58 50 120 30 63 67 156 83 206 l28 93 183 0 182 0 0 150 0 150 -154 0 -153
0 -6 203 c-4 170 -9 219 -31 312 -49 209 -124 395 -221 551 l-45 72 0 632 0
632 -172 -4 c-149 -4 -186 -9 -263 -32 -228 -67 -449 -222 -577 -404 l-16 -24
-109 36 c-263 87 -446 117 -753 123 -340 7 -565 -24 -858 -119 l-124 -40 -16
24 c-128 182 -349 337 -577 404 -77 23 -114 28 -262 32 l-173 4 0 -632z m371
289 c129 -42 256 -125 336 -218 l34 -40 -33 -17 c-66 -34 -206 -131 -305 -212
l-103 -82 0 295 c0 162 2 295 3 295 2 0 32 -9 68 -21z m3229 -275 l0 -296 -77
65 c-100 82 -199 153 -290 207 l-73 42 34 39 c46 54 148 134 210 166 46 24
169 71 189 72 4 1 7 -132 7 -295z m-1485 2 c278 -13 600 -103 855 -238 420
-224 719 -560 850 -957 52 -156 70 -274 70 -448 l0 -143 -295 0 -295 0 0 -150
0 -150 260 0 259 0 -15 -42 c-21 -62 -114 -248 -124 -248 -4 0 -75 29 -158 65
-82 36 -154 65 -159 65 -9 0 -123 -255 -123 -275 0 -5 37 -25 83 -44 45 -19
102 -43 126 -54 l43 -19 -38 -40 c-192 -199 -489 -382 -782 -482 -241 -82
-455 -117 -722 -117 -261 0 -472 34 -716 115 -292 98 -594 283 -788 484 l-39
41 39 16 c161 66 214 91 214 100 0 18 -113 275 -121 275 -4 0 -76 -29 -159
-65 -83 -36 -155 -65 -160 -65 -10 0 -103 185 -124 248 l-15 42 259 0 260 0 0
150 0 150 -295 0 -295 0 0 143 c0 84 7 182 16 238 19 116 79 300 132 406 286
568 940 963 1657 1002 72 4 144 6 160 4 17 -1 80 -5 140 -7z"/>
<path d="M1510 2710 l0 -150 150 0 150 0 0 150 0 150 -150 0 -150 0 0 -150z"/>
<path d="M3310 2710 l0 -150 150 0 150 0 0 150 0 150 -150 0 -150 0 0 -150z"/>
<path d="M2405 2474 c-104 -20 -238 -90 -323 -169 -66 -61 -172 -191 -172
-211 0 -5 113 -122 250 -259 l250 -250 0 -96 0 -96 -41 -12 c-64 -19 -178 -15
-245 9 -104 37 -91 45 -173 -100 -40 -72 -72 -133 -69 -135 16 -16 146 -66
211 -80 114 -25 295 -17 394 17 l73 24 73 -24 c99 -34 280 -42 394 -17 65 14
195 64 211 80 3 2 -29 63 -69 135 -82 145 -70 138 -169 101 -63 -23 -189 -28
-251 -9 l-39 11 0 96 0 96 250 250 c138 137 250 254 250 259 0 20 -106 150
-172 211 -165 153 -399 215 -633 169z m314 -329 c34 -15 61 -31 61 -34 0 -4
-49 -56 -110 -116 l-110 -110 -110 110 c-60 60 -110 112 -110 116 0 8 107 56
140 62 62 13 178 -1 239 -28z"/>
</g>
</svg>
