<?xml version="1.0" standalone="no"?>
<!DOCTYPE svg PUBLIC "-//W3C//DTD SVG 20010904//EN"
 "http://www.w3.org/TR/2001/REC-SVG-20010904/DTD/svg10.dtd">
<svg version="1.0" xmlns="http://www.w3.org/2000/svg"
 width="512.000000pt" height="512.000000pt" viewBox="0 0 512.000000 512.000000"
 preserveAspectRatio="xMidYMid meet">

<g transform="translate(0.000000,512.000000) scale(0.100000,-0.100000)"
fill="#000000" stroke="none">
<path d="M1668 4769 c-713 -69 -1334 -562 -1566 -1244 -88 -258 -102 -393
-102 -997 l0 -458 304 0 304 0 7 -67 c19 -184 86 -412 175 -598 272 -564 795
-951 1420 -1051 147 -24 553 -24 700 0 538 86 1004 386 1300 836 153 233 268
550 295 812 l7 68 304 0 304 0 0 458 c0 251 -5 507 -10 567 -42 437 -227 831
-535 1140 -309 308 -703 493 -1140 535 -131 12 -1638 11 -1767 -1z m1872 -313
c205 -38 409 -122 588 -239 l92 -61 0 -992 c0 -1166 -2 -1200 -87 -1454 -169
-504 -600 -900 -1118 -1029 -147 -36 -235 -45 -455 -45 -220 0 -308 9 -455 45
-518 129 -949 525 -1118 1029 -85 254 -87 288 -87 1454 l0 992 93 61 c184 121
398 207 592 237 55 9 111 17 125 20 14 2 410 3 880 2 777 -1 864 -3 950 -20z
m-2940 -1351 l0 -735 -151 0 -151 0 5 378 c4 330 7 389 25 474 26 123 81 286
127 380 33 66 136 238 142 238 2 0 3 -331 3 -735z m4057 511 c53 -106 107
-263 135 -394 18 -85 21 -144 25 -474 l5 -378 -151 0 -151 0 0 738 0 737 46
-70 c25 -38 66 -110 91 -159z"/>
<path d="M1737 3184 c-4 -4 -7 -72 -7 -151 l0 -143 155 0 156 0 -3 148 -3 147
-146 3 c-80 1 -148 -1 -152 -4z"/>
<path d="M3087 3184 c-4 -4 -7 -72 -7 -151 l0 -143 155 0 156 0 -3 148 -3 147
-146 3 c-80 1 -148 -1 -152 -4z"/>
<path d="M2285 2651 c-91 -26 -163 -69 -235 -141 -106 -106 -160 -234 -160
-380 0 -252 199 -488 449 -530 l71 -12 0 -149 0 -149 -150 0 -150 0 0 -150 0
-150 450 0 450 0 0 150 0 150 -150 0 -150 0 0 149 0 149 71 12 c250 42 449
278 449 530 0 146 -54 274 -160 380 -73 73 -154 120 -246 144 -91 23 -455 22
-539 -3z m531 -316 c158 -98 147 -328 -20 -418 -38 -21 -54 -22 -236 -22 -182
0 -198 1 -236 22 -147 79 -178 267 -63 382 66 66 90 71 310 69 l196 -3 49 -30z"/>
</g>
</svg>
