<?xml version="1.0" standalone="no"?>
<!DOCTYPE svg PUBLIC "-//W3C//DTD SVG 20010904//EN"
 "http://www.w3.org/TR/2001/REC-SVG-20010904/DTD/svg10.dtd">
<svg version="1.0" xmlns="http://www.w3.org/2000/svg"
 width="512.000000pt" height="512.000000pt" viewBox="0 0 512.000000 512.000000"
 preserveAspectRatio="xMidYMid meet">

<g transform="translate(0.000000,512.000000) scale(0.100000,-0.100000)"
fill="#000000" stroke="none">
<path d="M846 5013 c-4 -59 -9 -127 -12 -150 l-6 -41 68 -7 c38 -3 100 -11
139 -17 440 -68 796 -478 795 -916 l0 -77 -915 -524 -914 -523 66 -132 c78
-156 129 -230 214 -312 144 -136 300 -210 498 -234 134 -16 333 14 434 66 15
8 27 13 27 10 0 -11 304 -1332 321 -1396 77 -283 291 -534 563 -660 278 -129
594 -129 872 0 110 51 194 109 286 198 131 127 232 295 277 462 17 63 321
1385 321 1397 0 2 12 -3 28 -11 53 -27 167 -57 255 -66 261 -27 517 67 698
256 85 89 113 131 192 291 l66 132 -914 523 -915 523 0 77 c-1 337 218 678
534 832 110 54 213 82 354 96 59 6 107 12 109 13 2 3 -19 291 -21 294 -6 8
-233 -21 -306 -38 -171 -39 -348 -123 -486 -229 -140 -109 -295 -302 -369
-463 -66 -144 -115 -340 -115 -463 l0 -54 -428 0 -429 0 -6 93 c-12 182 -82
392 -188 565 -74 120 -271 317 -391 391 -158 97 -368 170 -530 186 -32 3 -82
8 -112 11 l-54 5 -6 -108z m2484 -2033 c157 -323 286 -595 288 -602 4 -22
-343 -1535 -367 -1599 -82 -218 -279 -394 -508 -453 -355 -92 -730 99 -869
443 -25 62 -377 1584 -372 1609 2 7 131 279 288 602 l285 589 485 0 485 0 285
-589z m-1714 328 c-67 -155 -392 -807 -409 -822 -72 -62 -218 -109 -337 -109
-170 0 -328 75 -431 206 l-41 51 23 16 c40 27 1194 689 1202 689 4 1 1 -14 -7
-31z m2482 -310 c328 -187 603 -346 610 -353 28 -25 -107 -160 -213 -213 -112
-56 -273 -72 -389 -38 -67 20 -160 64 -193 92 -12 11 -105 192 -208 404 -203
419 -218 450 -210 450 3 0 274 -154 603 -342z"/>
<path d="M2225 1167 c-47 -63 -85 -118 -85 -123 1 -5 61 -54 135 -109 l135
-99 0 -128 0 -128 150 0 150 0 0 128 0 128 135 99 c74 55 134 104 135 109 0 5
-38 60 -85 123 -56 74 -90 111 -98 106 -7 -4 -63 -45 -124 -91 l-113 -84 -112
84 c-62 46 -118 87 -125 91 -8 5 -42 -32 -98 -106z"/>
</g>
</svg>
