<?xml version="1.0" standalone="no"?>
<!DOCTYPE svg PUBLIC "-//W3C//DTD SVG 20010904//EN"
 "http://www.w3.org/TR/2001/REC-SVG-20010904/DTD/svg10.dtd">
<svg version="1.0" xmlns="http://www.w3.org/2000/svg"
 width="512.000000pt" height="512.000000pt" viewBox="0 0 512.000000 512.000000"
 preserveAspectRatio="xMidYMid meet">

<g transform="translate(0.000000,512.000000) scale(0.100000,-0.100000)"
fill="#000000" stroke="none">
<path d="M1570 5026 c0 -91 -1 -96 -22 -100 -13 -2 -68 -12 -123 -20 -245 -40
-491 -143 -705 -294 -115 -81 -314 -278 -391 -387 -120 -171 -205 -343 -259
-528 -68 -234 -63 -93 -67 -1984 l-4 -1713 1301 0 1300 0 0 790 0 790 65 0 65
0 714 -380 715 -380 150 0 c179 0 262 15 375 69 162 76 282 193 356 346 73
152 73 150 77 630 l3 430 -889 895 -889 896 55 34 c67 43 162 142 203 213 17
29 42 88 56 132 24 72 27 100 32 273 l5 192 -653 0 -652 0 -60 45 c-33 25 -87
58 -121 74 -118 56 -163 63 -409 68 l-228 5 0 -96z m419 -217 c118 -27 236
-124 289 -236 27 -57 27 -60 30 -305 l3 -248 338 0 337 0 917 -924 917 -924 0
-329 c0 -357 -5 -399 -57 -495 -37 -69 -130 -153 -210 -191 -63 -30 -76 -32
-193 -35 l-125 -3 -420 224 c-231 123 -553 294 -716 380 l-295 157 -223 0
c-255 0 -319 10 -446 70 -159 74 -282 193 -355 345 -57 117 -71 180 -77 343
l-6 142 -150 0 -150 0 6 -157 c4 -125 10 -179 30 -255 80 -304 286 -553 569
-688 81 -38 241 -90 279 -90 18 0 19 -19 19 -645 l0 -645 -1000 0 -1000 0 0
538 c0 645 11 799 76 1092 135 601 428 1128 871 1561 134 131 346 309 368 309
5 0 26 -28 45 -61 90 -157 306 -289 474 -289 l47 0 -3 147 -3 148 -47 6 c-93
14 -181 79 -230 172 -23 41 -23 48 -26 470 l-3 427 38 0 c21 0 58 -5 82 -11z
m1387 -231 c-7 -29 -20 -68 -30 -87 -26 -49 -95 -114 -151 -142 -49 -23 -57
-24 -317 -27 l-268 -3 0 93 c0 52 -7 120 -15 151 -8 32 -15 60 -15 62 0 3 182
5 404 5 l404 0 -12 -52z m-1806 -201 l0 -243 -32 -19 c-69 -40 -308 -228 -420
-329 -143 -129 -301 -304 -433 -481 -126 -168 -208 -299 -308 -494 l-79 -154
5 374 c4 331 7 385 25 467 30 133 57 212 117 337 184 384 546 669 970 765 44
10 97 19 118 19 l37 1 0 -243z"/>
<path d="M2697 3373 c-4 -3 -7 -71 -7 -150 l0 -143 150 0 150 0 0 150 0 150
-143 0 c-79 0 -147 -3 -150 -7z"/>
<path d="M4050 2087 c0 -40 30 -139 57 -189 30 -55 101 -130 155 -164 50 -32
149 -64 198 -64 l40 0 0 150 c0 145 -1 150 -20 150 -51 0 -113 55 -125 110
l-7 30 -149 0 c-149 0 -149 0 -149 -23z"/>
</g>
</svg>
