<?xml version="1.0" standalone="no"?>
<!DOCTYPE svg PUBLIC "-//W3C//DTD SVG 20010904//EN"
 "http://www.w3.org/TR/2001/REC-SVG-20010904/DTD/svg10.dtd">
<svg version="1.0" xmlns="http://www.w3.org/2000/svg"
 width="512.000000pt" height="512.000000pt" viewBox="0 0 512.000000 512.000000"
 preserveAspectRatio="xMidYMid meet">

<g transform="translate(0.000000,512.000000) scale(0.100000,-0.100000)"
fill="#000000" stroke="none">
<path d="M2385 4766 c-242 -38 -467 -156 -637 -334 l-85 -89 -149 -5 c-135 -4
-158 -8 -244 -37 -148 -50 -230 -101 -345 -216 -115 -115 -166 -197 -216 -345
-28 -82 -33 -113 -37 -227 l-5 -133 -333 0 -334 0 0 -139 c0 -271 59 -466 195
-640 127 -164 292 -277 492 -338 80 -24 106 -27 298 -30 116 -3 213 -8 217
-12 4 -3 89 -276 188 -605 194 -643 219 -709 320 -845 146 -196 352 -335 589
-399 85 -22 115 -25 261 -25 146 0 176 3 262 26 237 63 442 202 588 398 101
136 126 202 320 845 99 329 184 602 188 605 4 4 102 9 217 12 192 3 218 6 298
30 167 51 303 133 418 253 191 200 269 411 269 725 l0 139 -334 0 -333 0 -5
133 c-4 114 -9 145 -37 227 -50 148 -101 230 -216 345 -115 115 -197 166 -345
216 -86 29 -109 33 -244 37 l-150 5 -78 83 c-96 101 -187 169 -304 229 -211
108 -456 147 -689 111z m305 -297 c235 -37 444 -178 579 -390 l55 -85 89 23
c223 58 421 9 572 -142 274 -273 197 -739 -148 -904 -208 -99 -398 -81 -601
58 l-71 48 -35 -29 c-63 -54 -194 -136 -260 -162 -103 -41 -186 -56 -308 -56
-219 0 -392 66 -572 219 l-35 29 -63 -45 c-117 -83 -232 -123 -357 -123 -91 0
-158 16 -252 61 -191 91 -313 287 -313 504 0 159 53 288 165 400 151 151 349
200 573 142 l89 -24 41 66 c192 310 513 465 852 410z m-1877 -1471 c51 -77
126 -157 203 -218 26 -21 37 -43 63 -131 17 -59 31 -109 31 -113 0 -3 -57 -6
-128 -6 -213 0 -356 54 -486 185 -99 98 -159 207 -181 328 l-7 37 225 0 225 0
55 -82z m3992 45 c-34 -182 -170 -360 -337 -442 -117 -58 -180 -71 -330 -71
-70 0 -128 3 -128 6 0 4 14 54 31 113 26 88 37 110 63 131 77 61 152 141 203
218 l55 82 225 0 225 0 -7 -37z m-2764 -387 c173 -90 324 -127 519 -127 194 0
343 36 519 126 102 52 105 53 135 38 107 -55 269 -87 410 -81 79 3 96 1 91
-10 -3 -7 -104 -342 -225 -744 -121 -401 -234 -758 -251 -792 -72 -148 -197
-273 -343 -345 -103 -51 -177 -70 -296 -77 -300 -19 -586 149 -720 423 -16 35
-129 391 -250 792 -121 401 -222 736 -225 743 -5 11 12 13 91 10 141 -6 309
27 410 81 16 9 29 16 30 17 0 0 47 -24 105 -54z"/>
<path d="M2229 1447 c-46 -62 -85 -117 -87 -123 -2 -6 58 -57 133 -113 l135
-101 0 -130 0 -130 150 0 150 0 0 130 0 130 135 101 c82 62 134 107 131 115
-3 7 -42 62 -87 122 l-82 110 -118 -89 c-65 -49 -123 -89 -129 -89 -6 0 -64
40 -129 89 l-118 89 -84 -111z"/>
</g>
</svg>
