<svg width="31" height="31" viewBox="0 0 31 31" fill="none" xmlns="http://www.w3.org/2000/svg">
<path d="M9.05672 24.3804C7.40733 24.3804 6.07283 25.7149 6.07283 27.346C6.07283 28.977 7.40733 30.3115 9.05672 30.3115C10.7061 30.3115 12.0556 28.977 12.0556 27.346C12.0556 25.7149 10.7061 24.3804 9.05672 24.3804ZM0.0600586 2.13901C0.0600586 2.95453 0.734808 3.62177 1.5595 3.62177H3.05894L8.45694 14.8759L6.43269 18.4939C5.3381 20.4808 6.77756 22.8977 9.05672 22.8977H25.5506C26.3753 22.8977 27.05 22.2304 27.05 21.4149C27.05 20.5994 26.3753 19.9322 25.5506 19.9322H9.05672L10.7061 16.9666H21.877C23.0015 16.9666 23.9912 16.3587 24.501 15.4394L29.869 5.81626C30.4238 4.83764 29.7041 3.62177 28.5645 3.62177H6.37271L5.36809 1.50142C5.12818 0.982458 4.58838 0.65625 4.01859 0.65625H1.5595C0.734808 0.65625 0.0600586 1.32349 0.0600586 2.13901ZM24.0511 24.3804C22.4018 24.3804 21.0673 25.7149 21.0673 27.346C21.0673 28.977 22.4018 30.3115 24.0511 30.3115C25.7005 30.3115 27.05 28.977 27.05 27.346C27.05 25.7149 25.7005 24.3804 24.0511 24.3804Z" fill="black"/>
</svg>
